<svg data-v-0dd9719b="" version="1.0" xmlns="http://www.w3.org/2000/svg" xmlns:xlink="http://www.w3.org/1999/xlink" width="100%" height="100%" viewBox="0 0 340.000000 250.000000" preserveAspectRatio="xMidYMid meet" color-interpolation-filters="sRGB" style="margin: auto;"> <rect data-v-0dd9719b="" x="0" y="0" width="100%" height="100%" fill="#fff" fill-opacity="1" class="background"></rect> <rect data-v-0dd9719b="" x="0" y="0" width="100%" height="100%" fill="url(#watermark)" fill-opacity="1" class="watermarklayer"></rect> <g data-v-0dd9719b="" fill="#333" class="icon-text-wrapper icon-svg-group iconsvg" transform="translate(48.34886169433594,96.76789283752441)"><g class="iconsvg-imagesvg" transform="translate(0,0)"><g><rect fill="#333" fill-opacity="0" stroke-width="2" x="0" y="0" width="60" height="56.464211100863906" class="image-rect"></rect> <svg x="0" y="0" width="60" height="56.464211100863906" filtersec="colorsb624023574" class="image-svg-svg primary" style="overflow: visible;"><svg xmlns="http://www.w3.org/2000/svg" viewBox="0.28515467047691345 0.27830439805984497 105.97604370117188 99.73069763183594"><path d="M91.2 16a53.15 53.15 0 0 1-1 75.14l-4.65-4.78A46.43 46.43 0 1 0 6.68 52.57a46.06 46.06 0 0 0 13.17 33l-4.78 4.67A53.17 53.17 0 0 1 91.2 16z" fill="#2b3990"></path><path d="M25.37 24.66A39.76 39.76 0 1 1 80.89 81.6l-4.65-4.78a33.09 33.09 0 1 0-46.83-.56l-4.78 4.66a39.79 39.79 0 0 1 .74-56.26z" fill="#2b3990"></path><path d="M34.68 34.21a26.43 26.43 0 1 1 36.9 37.84l-4.66-4.78A19.74 19.74 0 1 0 39 66.94l-4.81 4.66a26.44 26.44 0 0 1 .49-37.39z" fill="#2b3990"></path><path d="M44 43.76A13.09 13.09 0 1 1 62.27 62.5l-4.66-4.77a6.42 6.42 0 1 0-9.08-.11l-4.78 4.66A13.1 13.1 0 0 1 44 43.76z" fill="#2b3990"></path><path fill="#00aeef" d="M56.678 94.65l4.868-4.748 4.741 4.862-4.868 4.747zM38.09 94.553l4.868-4.747 4.74 4.86-4.868 4.748zM57.034 76.076l4.868-4.747 4.748 4.868-4.869 4.748zM66.147 85.413l4.868-4.748 4.74 4.862-4.868 4.747zM75.613 95.14l4.868-4.747 4.748 4.868-4.868 4.748zM48.142 66.954l4.868-4.748 4.74 4.861-4.868 4.748zM38.673 76.19l4.868-4.747 4.741 4.861-4.868 4.748zM52.44 80.57v-.01l-4.88 4.75.01.01 4.74 4.87 4.88-4.75-4.75-4.87zM29.207 85.43l4.869-4.747 4.74 4.861-4.868 4.748zM19.246 95.136l4.868-4.748 4.74 4.862-4.868 4.747z"></path></svg></svg> <!----></g></g> <g transform="translate(67,4.293357849121094)"><g data-gra="path-name" fill-rule="" class="tp-name iconsvg-namesvg" transform="translate(0,0)"><g transform="scale(1)"><g><path d="M29.16 0.25L11.05 0.25Q10.12 0.25 9.54-0.32 8.96-0.9 8.96-1.84L8.96-1.84 8.96-11.48Q6.84-8.68 4.14-6.3L4.14-6.3Q3.02-5.4 2.12-6.37L2.12-6.37Q1.19-7.42 2.41-8.42L2.41-8.42Q5.9-11.41 8.71-15.95L8.71-15.95Q11.23-20.02 12.78-24.73L12.78-24.73 3.92-24.73Q2.63-24.73 2.63-26.06L2.63-26.06Q2.63-27.36 3.92-27.36L3.92-27.36 32.15-27.36Q33.44-27.36 33.44-26.06L33.44-26.06Q33.44-24.73 32.15-24.73L32.15-24.73 15.8-24.73Q14.04-19.73 11.52-15.37L11.52-15.37 29.16-15.37Q30.1-15.37 30.67-14.8 31.25-14.22 31.25-13.28L31.25-13.28 31.25-1.84Q31.25-0.9 30.67-0.32 30.1 0.25 29.16 0.25L29.16 0.25ZM12.35-2.34L12.35-2.34 27.76-2.34Q28.51-2.34 28.51-3.1L28.51-3.1 28.51-12.06Q28.51-12.82 27.76-12.82L27.76-12.82 11.59-12.82 11.59-3.1Q11.59-2.34 12.35-2.34ZM51.16 2.81Q50.8 2.84 50 2.81L50 2.81Q49.57 2.81 49.36 2.81L49.36 2.81Q48.06 2.74 47.77 1.76L47.77 1.76Q47.3 0.22 49.43 0.32L49.43 0.32Q49.86 0.36 50.62 0.36L50.62 0.36Q52.27 0.36 53.06-0.32L53.06-0.32Q54.07-1.08 54.43-2.88L54.43-2.88Q54.79-4.75 54.25-6.98L54.25-6.98Q51.59-4.75 47.84-2.66L47.84-2.66Q44.21-0.61 40.61 0.72L40.61 0.72Q39.56 1.08 38.99 0.14L38.99 0.14Q38.56-0.54 38.74-0.95 38.92-1.37 39.74-1.62L39.74-1.62Q43.52-2.88 47.3-4.97L47.3-4.97Q51.12-7.09 53.46-9.32L53.46-9.32Q53.06-10.3 52.24-11.63L52.24-11.63Q50.22-10.15 47.34-8.57L47.34-8.57Q44.5-7.06 41.87-6.01L41.87-6.01Q40.86-5.62 40.28-6.48L40.28-6.48Q39.82-7.16 39.98-7.54 40.14-7.92 40.93-8.17L40.93-8.17Q43.63-9.07 46.4-10.48L46.4-10.48Q49.25-11.88 51.01-13.25L51.01-13.25Q50.18-14.15 49.36-14.87L49.36-14.87Q45.9-13.1 41.65-11.77L41.65-11.77Q40.68-11.45 40.07-12.28L40.07-12.28Q39.17-13.54 40.79-13.97L40.79-13.97Q47.41-15.8 51.55-18.54L51.55-18.54 45.11-18.54Q43.96-18.54 43.96-19.69 43.96-20.84 45.11-20.84L45.11-20.84 62.71-20.84Q63.86-20.84 63.86-19.69 63.86-18.54 62.71-18.54L62.71-18.54 57.6-18.54Q58.39-15.59 59.87-12.53L59.87-12.53Q63.04-14.51 65.52-16.6L65.52-16.6Q66.35-17.35 67.28-16.52L67.28-16.52Q68.36-15.55 67.28-14.65L67.28-14.65Q64.87-12.82 60.98-10.48L60.98-10.48Q64.08-5.51 68.44-3.17L68.44-3.17Q70.13-2.41 69.08-1.04L69.08-1.04Q68.33-0.04 67.14-0.65L67.14-0.65Q58.61-5.4 55.26-18.54L55.26-18.54 55.19-18.54Q53.6-17.21 51.55-16.02L51.55-16.02Q54.76-13.21 56.23-9.36L56.23-9.36Q57.53-5.9 57.13-2.74L57.13-2.74Q56.74 0.36 54.94 1.62L54.94 1.62Q54.07 2.3 53.21 2.56L53.21 2.56Q52.38 2.81 51.16 2.81L51.16 2.81ZM40.68-19.84L40.68-19.84Q39.38-19.84 39.38-21.13L39.38-21.13 39.38-24.84Q39.38-25.78 39.96-26.35 40.54-26.93 41.47-26.93L41.47-26.93 52.63-26.93 52.63-28.76Q52.63-30.1 53.96-30.1L53.96-30.1Q55.3-30.1 55.3-28.76L55.3-28.76 55.3-26.93 66.74-26.93Q67.68-26.93 68.26-26.35 68.83-25.78 68.83-24.84L68.83-24.84 68.83-21.17Q68.83-19.84 67.5-19.84L67.5-19.84Q66.13-19.84 66.13-21.17L66.13-21.17 66.13-23.69Q66.13-24.44 65.38-24.44L65.38-24.44 42.73-24.44Q41.98-24.44 41.98-23.69L41.98-23.69 41.98-21.13Q41.98-19.84 40.68-19.84ZM76.36 1.4Q75.67 2.77 74.48 1.98L74.48 1.98Q73.44 1.26 74.09 0L74.09 0Q76.61-5.54 76.61-16.2L76.61-16.2 76.61-23.4Q76.61-24.34 77.18-24.91 77.76-25.49 78.7-25.49L78.7-25.49 89.68-25.49 89.68-28.76Q89.68-30.1 91.04-30.1L91.04-30.1Q92.38-30.1 92.38-28.76L92.38-28.76 92.38-25.49 104.76-25.49Q106.02-25.49 106.02-24.23L106.02-24.23Q106.02-22.93 104.76-22.93L104.76-22.93 79.96-22.93Q79.2-22.93 79.2-22.18L79.2-22.18 79.2-16.2Q79.2-4.93 76.36 1.4L76.36 1.4ZM104.8 1.62L81 1.62Q79.74 1.62 79.74 0.36L79.74 0.36Q79.74-0.94 81-0.94L81-0.94 91.44-0.94 91.44-11.77 83.41-11.77Q82.12-11.77 82.12-13.07 82.12-14.36 83.41-14.36L83.41-14.36 91.44-14.36 91.44-20.56Q91.44-21.89 92.81-21.89L92.81-21.89Q94.14-21.89 94.14-20.56L94.14-20.56 94.14-14.36 102.96-14.36Q104.26-14.36 104.26-13.07 104.26-11.77 102.96-11.77L102.96-11.77 94.14-11.77 94.14-0.94 104.8-0.94Q106.06-0.94 106.06 0.36L106.06 0.36Q106.06 1.62 104.8 1.62L104.8 1.62ZM125.5 1.91Q124.49 2.77 123.48 2.02L123.48 2.02Q122.11 0.97 123.59-0.18L123.59-0.18Q126.32-2.52 128.09-6.3L128.09-6.3Q129.89-10.04 130.68-15.48L130.68-15.48Q130.93-17.03 132.32-16.87 133.7-16.7 133.49-15.26L133.49-15.26Q133.42-14.94 133.31-14.29L133.31-14.29Q133.16-13.5 133.09-13.14L133.09-13.14Q135.29-4.72 140.69-0.83L140.69-0.83Q142.45 0.25 141.41 1.58L141.41 1.58Q140.51 2.7 139.18 1.76L139.18 1.76Q134.57-1.69 131.94-8.68L131.94-8.68Q129.71-1.91 125.5 1.91L125.5 1.91ZM112.97 1.84Q112 2.74 110.99 1.98L110.99 1.98Q109.62 0.97 110.99-0.22L110.99-0.22Q113.47-2.63 115.11-6.41 116.75-10.19 117.47-15.48L117.47-15.48Q117.65-17.03 119.05-16.87 120.46-16.7 120.24-15.26L120.24-15.26Q120.02-13.75 119.56-11.52L119.56-11.52Q123.08-8.71 125.42-6.16L125.42-6.16Q125.82-5.69 125.75-5.29L125.75-5.29Q125.71-4.9 125.21-4.39L125.21-4.39Q124.63-3.78 124.24-3.71L124.24-3.71Q123.8-3.64 123.3-4.25L123.3-4.25Q121.43-6.41 118.84-8.71L118.84-8.71Q116.82-1.98 112.97 1.84L112.97 1.84ZM112.39-15.73Q111.17-15.05 110.41-16.06L110.41-16.06Q109.44-17.32 111.1-18.14L111.1-18.14Q114.88-20.2 118.3-23.22L118.3-23.22Q121.57-26.1 123.62-29.05L123.62-29.05Q123.91-29.48 124.47-29.75 125.03-30.02 125.68-30.02L125.68-30.02 125.86-30.02Q127.15-30.02 127.91-29.02L127.91-29.02Q130.5-25.74 134.21-22.82L134.21-22.82Q137.59-20.2 141.08-18.47L141.08-18.47Q142.63-17.75 141.66-16.34L141.66-16.34Q140.9-15.26 139.64-15.91L139.64-15.91Q135.61-18.11 131.94-21.1L131.94-21.1Q128.02-24.3 125.86-27.32L125.86-27.32Q123.88-24.34 120.24-21.2L120.24-21.2Q116.57-18 112.39-15.73L112.39-15.73ZM177.48 1.91Q176.9 2.77 175.43 2.56L175.43 2.56Q170.28 1.69 167.08-0.43L167.08-0.43Q163.76-2.59 162.04-6.37L162.04-6.37 161.86-6.37Q160.56-2.99 157.68-0.97L157.68-0.97Q154.58 1.22 148.82 2.41L148.82 2.41Q148.1 2.56 147.49 2.45L147.49 2.45Q146.7 2.3 146.45 1.8L146.45 1.8Q146.02 1.08 146.74 0.54L146.74 0.54Q147.28 0.11 148.36-0.07L148.36-0.07Q152.78-0.97 155.34-2.59L155.34-2.59Q157.72-4.03 158.9-6.37L158.9-6.37 147.24-6.37Q146.09-6.37 146.09-7.56L146.09-7.56Q146.09-8.71 147.24-8.71L147.24-8.71 159.8-8.71Q160.16-10.22 160.34-12.02L160.34-12.02 147.56-12.02Q146.34-12.02 146.34-13.25 146.34-14.47 147.56-14.47L147.56-14.47 160.6-14.47 160.6-17.46 150.7-17.46Q149.54-17.46 149.54-18.65L149.54-18.65Q149.54-19.8 150.7-19.8L150.7-19.8 160.6-19.8 160.6-22.72 148.97-22.72Q147.78-22.72 147.78-23.94L147.78-23.94Q147.78-25.13 148.97-25.13L148.97-25.13 154.98-25.13Q154.37-26.5 153.25-28.04L153.25-28.04Q152.32-29.23 153.72-29.81L153.72-29.81Q154.58-30.13 155.23-29.48L155.23-29.48Q156.49-28.01 157.25-26.53L157.25-26.53Q157.43-26.17 157.28-25.79 157.14-25.42 156.67-25.16L156.67-25.16 156.56-25.13 167.18-25.13 166.39-25.42Q165.85-25.6 166.18-25.99L166.18-25.99Q167.4-27.58 168.34-29.23L168.34-29.23Q168.95-30.17 170.06-29.81L170.06-29.81Q171.58-29.34 170.68-27.9L170.68-27.9Q169.7-26.57 168.41-25.13L168.41-25.13 175.07-25.13Q176.26-25.13 176.26-23.94L176.26-23.94Q176.26-22.72 175.07-22.72L175.07-22.72 163.26-22.72 163.26-19.8 173.52-19.8Q174.67-19.8 174.67-18.65L174.67-18.65Q174.67-17.46 173.52-17.46L173.52-17.46 163.26-17.46 163.26-14.47 176.44-14.47Q177.66-14.47 177.66-13.25 177.66-12.02 176.44-12.02L176.44-12.02 163.12-12.02Q162.97-10.3 162.58-8.71L162.58-8.71 176.87-8.71Q178.02-8.71 178.02-7.56L178.02-7.56Q178.02-6.37 176.87-6.37L176.87-6.37 164.77-6.37Q167.72-1.4 175.82 0L175.82 0Q176.98 0.14 177.48 0.58L177.48 0.58Q178.02 1.12 177.48 1.91L177.48 1.91Z" transform="translate(-1.7177209854125977, 30.100000381469727)"></path></g> <!----> <!----> <!----> <!----> <!----> <!----> <!----></g></g> <g data-gra="path-slogan" fill-rule="" class="tp-slogan iconsvg-slogansvg" fill="#333" transform="translate(11.275314331054688,38.92499923706055)"><!----> <!----> <g transform="scale(1, 1)"><g transform="scale(1)"><path d="M7.17-6.09L7.17-6.09L6.09-6.09Q6-7.73 3.94-7.83L3.94-7.83Q2.02-7.78 2.02-6.33L2.02-6.33Q2.02-5.39 3.05-5.25L3.05-5.25L5.48-4.69Q7.41-4.22 7.41-2.34L7.41-2.34Q7.36 0.05 4.03 0.14L4.03 0.14Q2.20 0.14 1.45-0.61L1.45-0.61Q0.52-1.31 0.56-2.77L0.56-2.77L1.69-2.77Q1.73-0.80 4.03-0.75L4.03-0.75Q6.28-0.80 6.33-2.20L6.33-2.20Q6.52-3.38 4.45-3.75L4.45-3.75L2.67-4.13Q0.84-4.64 0.84-6.19L0.84-6.19Q0.98-8.72 3.84-8.81L3.84-8.81Q7.08-8.81 7.17-6.09ZM10.03-5.06L14.53-5.06L14.53-8.58L15.70-8.58L15.70 0L14.53 0L14.53-3.98L10.03-3.98L10.03 0L8.86 0L8.86-8.58L10.03-8.58L10.03-5.06ZM17.67-8.58L18.84-8.58L18.84 0L17.67 0L17.67-8.58ZM20.11-1.92L20.11-2.77L21.19-2.77L21.19-2.16Q21.19-0.75 22.50-0.75L22.50-0.75Q23.86-0.75 23.86-2.25L23.86-2.25L23.86-8.58L25.03-8.58L25.03-2.30Q24.98 0.09 22.55 0.14L22.55 0.14Q20.25 0.09 20.11-1.92L20.11-1.92ZM27-8.58L28.17-8.58L28.17 0L27 0L27-8.58ZM35.81 0L34.97-2.48L31.50-2.48L30.61 0L29.44 0L32.67-8.58L33.98-8.58L37.08 0L35.81 0ZM33.23-7.31L31.88-3.52L34.55-3.52L33.28-7.31L33.23-7.31ZM38.95-1.03L44.25-1.03L44.25 0L37.50 0L37.50-0.94L42.75-7.59L37.88-7.59L37.88-8.58L44.25-8.58L44.25-7.59L38.95-1.03ZM46.55-5.06L51.05-5.06L51.05-8.58L52.22-8.58L52.22 0L51.05 0L51.05-3.98L46.55-3.98L46.55 0L45.38 0L45.38-8.58L46.55-8.58L46.55-5.06ZM59.67-3.19L59.67-8.58L60.84-8.58L60.84-3.05Q60.70 0.05 57.33 0.14L57.33 0.14Q54.19 0.05 54.05-2.86L54.05-2.86L54.05-8.58L55.22-8.58L55.22-3.19Q55.27-0.84 57.38-0.80L57.38-0.80Q59.67-0.84 59.67-3.19L59.67-3.19ZM68.30 0L67.45-2.48L63.98-2.48L63.09 0L61.92 0L65.16-8.58L66.47-8.58L69.56 0L68.30 0ZM65.72-7.31L64.36-3.52L67.03-3.52L65.77-7.31L65.72-7.31ZM72-8.58L76.31-1.64L76.31-8.58L77.44-8.58L77.44 0L76.13 0L71.77-6.94L71.72-6.94L71.72 0L70.59 0L70.59-8.58L72-8.58ZM85.64-3.61L83.02-3.61L83.02-4.59L86.77-4.59L86.77 0L86.02 0L85.73-1.08Q84.75 0.09 82.92 0.14L82.92 0.14Q81.19 0.14 80.25-0.75L80.25-0.75Q78.84-2.06 78.89-4.36L78.89-4.36Q79.22-8.63 82.97-8.81L82.97-8.81Q86.16-8.63 86.63-6L86.63-6L85.50-6Q85.03-7.78 82.92-7.83L82.92-7.83Q80.25-7.64 80.11-4.31L80.11-4.31Q80.11-0.75 82.97-0.75L82.97-0.75Q84-0.75 84.75-1.31L84.75-1.31Q85.69-2.06 85.64-3.61L85.64-3.61ZM92.72-1.03L98.02-1.03L98.02 0L91.27 0L91.27-0.94L96.52-7.59L91.64-7.59L91.64-8.58L98.02-8.58L98.02-7.59L92.72-1.03ZM100.31-5.06L104.81-5.06L104.81-8.58L105.98-8.58L105.98 0L104.81 0L104.81-3.98L100.31-3.98L100.31 0L99.14 0L99.14-8.58L100.31-8.58L100.31-5.06ZM114.56-4.27L114.56-4.27Q114.38-7.64 111.56-7.83L111.56-7.83Q108.70-7.69 108.56-4.27L108.56-4.27Q108.70-0.94 111.56-0.80L111.56-0.80Q114.38-0.98 114.56-4.27ZM115.73-4.27L115.73-4.27Q115.45 0 111.56 0.14L111.56 0.14Q107.63 0 107.34-4.27L107.34-4.27Q107.58-8.72 111.56-8.81L111.56-8.81Q115.45-8.67 115.73-4.27ZM118.50-8.58L122.81-1.64L122.81-8.58L123.94-8.58L123.94 0L122.63 0L118.27-6.94L118.22-6.94L118.22 0L117.09 0L117.09-8.58L118.50-8.58ZM132.14-3.61L129.52-3.61L129.52-4.59L133.27-4.59L133.27 0L132.52 0L132.23-1.08Q131.25 0.09 129.42 0.14L129.42 0.14Q127.69 0.14 126.75-0.75L126.75-0.75Q125.34-2.06 125.39-4.36L125.39-4.36Q125.72-8.63 129.47-8.81L129.47-8.81Q132.66-8.63 133.13-6L133.13-6L132-6Q131.53-7.78 129.42-7.83L129.42-7.83Q126.75-7.64 126.61-4.31L126.61-4.31Q126.61-0.75 129.47-0.75L129.47-0.75Q130.50-0.75 131.25-1.31L131.25-1.31Q132.19-2.06 132.14-3.61L132.14-3.61ZM143.30-8.58L143.30 0L142.17 0L142.17-5.06Q142.17-5.77 142.17-7.22L142.17-7.22L139.73 0L138.56 0L136.17-7.22L136.13-7.22Q136.13-6.70 136.17-5.67L136.17-5.67Q136.17-5.16 136.17-5.06L136.17-5.06L136.17 0L135 0L135-8.58L136.69-8.58L139.17-1.31L141.61-8.58L143.30-8.58ZM146.30-1.03L151.45-1.03L151.45 0L145.13 0L145.13-8.58L151.36-8.58L151.36-7.59L146.30-7.59L146.30-4.92L150.98-4.92L150.98-3.89L146.30-3.89L146.30-1.03ZM153.14-8.58L154.31-8.58L154.31 0L153.14 0L153.14-8.58Z" transform="translate(-0.5602678571428572, 8.8125)"></path></g></g></g></g></g><defs v-gra="od"></defs></svg>